Coordinates
version=1
nRows=11
nColumns=40
inDegrees=yes

Units are S.I. units (second, meters, Newtons, ...)
Angles are in degrees.

endheader
time	pelvis_tilt	pelvis_list	pelvis_rotation	pelvis_tx	pelvis_ty	pelvis_tz	hip_flexion_r	hip_adduction_r	hip_rotation_r	knee_angle_r	knee_angle_r_beta	ankle_angle_r	subtalar_angle_r	mtp_angle_r	hip_flexion_l	hip_adduction_l	hip_rotation_l	knee_angle_l	knee_angle_l_beta	ankle_angle_l	subtalar_angle_l	mtp_angle_l	lumbar_extension	lumbar_bending	lumbar_rotation	arm_flex_r	arm_add_r	arm_rot_r	elbow_flex_r	pro_sup_r	wrist_flex_r	wrist_dev_r	arm_flex_l	arm_add_l	arm_rot_l	elbow_flex_l	pro_sup_l	wrist_flex_l	wrist_dev_l
     11.17528571	     -5.56879459	     -4.48382845	      1.15492910	      0.78246757	      0.92986793	      0.52395672	     11.21831080	      3.39722348	    -15.36656579	     15.02106546	     15.02106546	     11.22617614	      1.75066158	     -2.95542787	     32.26560429	    -11.67413308	      1.26851261	     37.62861177	     37.62861177	     10.23949925	    -15.91205187	     10.90163338	    -10.54684562	      7.54897666	      2.30047403	     29.10703271	    -20.09598489	     -3.88039353	     53.37578063	     45.71305249	      0.00000000	      0.00000000	      3.00699103	     -8.71640938	     -5.33867770	     32.02086664	     46.68289475	      0.00000000	      0.00000000
     11.18807143	     -5.77078034	     -4.49494578	      1.52960435	      0.78110645	      0.92911347	      0.52305629	     10.93630730	      3.38668507	    -15.50338216	     14.77506587	     14.77506587	     11.52067219	      1.57943447	     -3.22528401	     32.56252785	    -11.33575313	      1.32104265	     34.05610198	     34.05610198	     10.35335029	    -14.73543552	     11.04299775	    -10.38999306	      7.61269441	      2.36802791	     30.14948138	    -20.40376335	     -3.95955821	     54.59276892	     45.67712610	      0.00000000	      0.00000000	      2.22261499	     -8.72836299	     -5.37660493	     31.65069109	     46.66989738	      0.00000000	      0.00000000
     11.20085714	     -5.82035714	     -4.63310222	      1.94681462	      0.77997014	      0.92847450	      0.52210153	     10.42797868	      3.52237570	    -15.74410454	     14.40791393	     14.40791393	     11.56211595	      1.46127431	     -4.02411246	     32.64981564	    -11.08343320	      1.45281204	     30.52462872	     30.52462872	     10.02572022	    -13.54705456	     10.05158771	    -10.46745605	      7.86457249	      2.26396430	     30.49873464	    -20.70598092	     -3.89986633	     58.39047208	     45.53736709	      0.00000000	      0.00000000	      1.31225567	     -8.81693040	     -5.69326656	     31.35209385	     46.67787168	      0.00000000	      0.00000000
     11.21364286	     -5.90950188	     -4.68965701	      2.29319008	      0.77882378	      0.92778403	      0.52113159	     10.09680055	      3.54516813	    -15.84435920	     14.30874307	     14.30874307	     11.75958836	      1.20784747	     -4.69284221	     32.72928042	    -10.78798530	      1.35015261	     27.14684609	     27.14684609	      9.63995649	    -12.09510678	      9.03667216	    -10.51747395	      7.93913322	      2.83403244	     30.44422880	    -21.47148831	     -4.33874220	     61.62448028	     45.44080572	      0.00000000	      0.00000000	      0.82693546	     -8.72577380	     -6.09265587	     31.22300499	     46.68618944	      0.00000000	      0.00000000
     11.22642857	     -6.02109001	     -4.73093404	      2.66056816	      0.77773761	      0.92717943	      0.52003794	      9.79950776	      3.53059697	    -16.00255690	     14.25413378	     14.25413378	     12.08278996	      1.05714733	     -4.80470016	     32.88677652	    -10.43325501	      1.24614883	     24.14549147	     24.14549147	      9.66006171	    -10.49355892	      9.35221851	    -10.42646627	      7.98519456	      2.67271329	     31.38871297	    -21.34754996	     -4.50050393	     62.82430746	     45.41041232	      0.00000000	      0.00000000	      0.01557765	     -8.83005308	     -6.14197394	     30.85017955	     46.67470596	      0.00000000	      0.00000000
     11.23921429	     -6.04870148	     -4.79701449	      3.03171928	      0.77681140	      0.92668655	      0.51890843	      9.39990181	      3.54587919	    -16.19203120	     14.19512029	     14.19512029	     12.41812842	      0.97153711	     -4.88001933	     33.02767688	    -10.12614198	      0.98456730	     21.58810254	     21.58810254	      9.56737626	     -8.84965825	      9.58646306	    -10.42282224	      8.02393843	      2.42191737	     32.19333788	    -21.07798602	     -4.65624853	     64.62130661	     45.35893257	      0.00000000	      0.00000000	     -0.88355648	     -8.94362447	     -6.27254209	     30.60985421	     46.67284935	      0.00000000	      0.00000000
     11.25200000	     -6.12733308	     -4.89315720	      3.36963803	      0.77598344	      0.92619703	      0.51771431	      9.03179645	      3.59051368	    -16.43007571	     14.09461614	     14.09461614	     12.69312198	      0.96162257	     -4.87848529	     33.16855028	     -9.85698715	      0.59294290	     19.29904782	     19.29904782	      9.46843707	     -7.23700444	      9.74308546	    -10.44023984	      8.12103086	      2.16107132	     32.79409500	    -20.80849111	     -4.84298637	     66.94972794	     45.29052254	      0.00000000	      0.00000000	     -1.75988426	     -8.97464076	     -6.48764527	     30.57034988	     46.68234645	      0.00000000	      0.00000000
     11.26478571	     -6.14087093	     -5.06962001	      3.70666749	      0.77539529	      0.92572038	      0.51645070	      8.53891062	      3.72556413	    -16.75711553	     13.92453049	     13.92453049	     13.04793201	      1.16028725	     -4.71194474	     33.42765274	     -9.69456445	      0.06716533	     17.73404280	     17.73404280	      9.23630891	     -5.78107557	      9.57929353	    -10.52570970	      8.32818619	      2.24853566	     32.61737859	    -20.83170613	     -5.31180826	     71.06165487	     45.17407023	      0.00000000	      0.00000000	     -2.62847255	     -8.92179291	     -7.07592577	     31.09155007	     46.73368761	      0.00000000	      0.00000000
     11.27757143	     -6.16988375	     -5.15499125	      3.99208300	      0.77499893	      0.92535411	      0.51511683	      8.02677827	      3.77788780	    -16.96753515	     13.70933612	     13.70933612	     13.36746292	      1.30225561	     -4.53636409	     33.55535144	     -9.42865869	     -0.45959459	     16.38389392	     16.38389392	      8.83238039	     -4.86208142	      9.57644153	    -10.51598155	      8.36620019	      2.38126301	     32.59223213	    -20.72333827	     -5.78505369	     73.93126548	     45.10405653	      0.00000000	      0.00000000	     -3.24420224	     -8.87846290	     -7.46769441	     31.11731809	     46.75814391	      0.00000000	      0.00000000
     11.29035714	     -6.18106281	     -5.23088201	      4.23225890	      0.77483783	      0.92501069	      0.51371047	      7.43427017	      3.83662299	    -17.14659068	     13.40867952	     13.40867952	     13.62391030	      1.45219315	     -4.44100636	     33.62242673	     -9.17905870	     -1.03109075	     15.44220600	     15.44220600	      8.39145283	     -4.26288194	      9.65650970	    -10.44942490	      8.39821667	      2.28385792	     32.95400922	    -20.31599347	     -5.95306387	     75.94959592	     45.05017876	      0.00000000	      0.00000000	     -3.91776009	     -8.88027447	     -7.64001762	     30.97215183	     46.75894258	      0.00000000	      0.00000000
     11.30314286	     -6.15651823	     -5.35542546	      4.43292601	      0.77495031	      0.92464852	      0.51232962	      6.72082751	      3.97357658	    -17.34729427	     12.98070378	     12.98070378	     13.87427351	      1.76782931	     -4.32970006	     33.67031434	     -9.02249881	     -1.55874694	     14.99182060	     14.99182060	      7.89538094	     -3.94764852	      9.60801156	    -10.42877183	      8.44387026	      2.16920304	     33.13550519	    -19.81500978	     -6.04727738	     78.33310114	     44.98188237	      0.00000000	      0.00000000	     -4.64252393	     -8.87383756	     -7.84205070	     30.92286371	     46.76530620	      0.00000000	      0.00000000
